<?xml version="1.0" encoding="UTF-8"?>
<!DOCTYPE svg PUBLIC "-//W3C//DTD SVG 1.1//EN" "http://www.w3.org/Graphics/SVG/1.1/DTD/svg11.dtd">
<!-- Creator: CorelDRAW 2020 (64 Bit) -->
<svg xmlns="http://www.w3.org/2000/svg" xml:space="preserve" width="0.344063in" height="0.15185in" version="1.1" style="shape-rendering:geometricPrecision; text-rendering:geometricPrecision; image-rendering:optimizeQuality; fill-rule:evenodd; clip-rule:evenodd"
viewBox="0 0 63.22 27.9"
 xmlns:xlink="http://www.w3.org/1999/xlink"
 xmlns:xodm="http://www.corel.com/coreldraw/odm/2003">
 <defs>
  <style type="text/css">
   <![CDATA[
    .fil1 {fill:#00C800}
    .fil0 {fill:#2E2D37}
    .fnt0 {font-weight:bold;font-size:4.83px;font-family:'ITC Officina Sans'}
   ]]>
  </style>
 </defs>
 <g id="Camada_x0020_1">
  <metadata id="CorelCorpID_0Corel-Layer"/>
  <path class="fil0" d="M31.84 9.62c0,-0.84 -0.02,-1.85 0.26,-2.57 0.1,-0.26 0.23,-0.45 0.44,-0.61 0.45,-0.34 1.34,-0.28 1.84,-0.05 0.08,0.04 0.16,0.11 0.23,0.13l0 4.81c0,0.17 0.03,0.32 -0.04,0.4 -0.29,0.32 -0.65,0.53 -1.25,0.53 -0.66,0 -1,-0.26 -1.22,-0.82 -0.18,-0.44 -0.25,-1.2 -0.25,-1.81zm4.64 -9.62l0.76 0c0.14,0 0.1,0.6 0.1,0.77l0 9.52c0,1.03 -0.03,1.82 0.26,2.76 0.16,0.51 0.12,0.61 -0.33,0.79 -0.17,0.07 -0.35,0.14 -0.52,0.21l-0.79 0.32c-0.14,0.05 -0.19,0.08 -0.32,0.08 -0.23,0 -0.44,-0.51 -0.52,-0.71 -0.04,-0.1 -0.06,-0.22 -0.1,-0.3 -0.06,0.02 -0.07,0.05 -0.12,0.09 -0.29,0.25 -0.53,0.41 -0.88,0.59 -0.52,0.26 -0.97,0.33 -1.6,0.33 -0.83,0 -1.61,-0.35 -2.13,-0.9 -0.19,-0.2 -0.43,-0.55 -0.55,-0.79 -0.28,-0.57 -0.41,-1.02 -0.52,-1.67 -0.04,-0.21 -0.1,-0.78 -0.1,-0.99 0,-0.09 0,-0.19 0,-0.28 0,-0.11 -0.02,-0.15 -0.02,-0.24l0.02 -0.52c-0,-0.17 0.03,-0.36 0.03,-0.52 0,-0.15 0.03,-0.34 0.05,-0.49 0.03,-0.31 0.1,-0.64 0.17,-0.93 0.15,-0.59 0.34,-1.09 0.62,-1.55 0.58,-0.94 1.6,-1.58 2.77,-1.58 0.45,0 0.77,-0.01 1.19,0.13 0.4,0.13 0.36,0.15 0.66,0.31 0,-1.04 0,-2.08 0,-3.12 0,-0.77 -0.11,-0.92 0.51,-1.06 0.22,-0.05 0.43,-0.09 0.65,-0.13 0.12,-0.02 0.21,-0.04 0.33,-0.07 0.13,-0.03 0.26,-0.05 0.38,-0.05z"/>
  <path class="fil0" d="M2.67 9.32c0,-0.81 0.02,-2.17 0.57,-2.72 0.09,-0.09 0.16,-0.15 0.28,-0.21 0.5,-0.22 1.22,-0.06 1.65,0.25 0.05,0.04 0.08,0.06 0.13,0.1 0.06,0.05 0.12,0.09 0.12,0.12l0 5.04c0,0.09 -0.43,0.23 -0.53,0.26 -0.45,0.12 -1.24,0.15 -1.6,-0.18 -0.59,-0.55 -0.63,-1.8 -0.63,-2.66zm3.64 11.51l-0.85 0c-0.04,-0.17 -0.05,-0.26 -0.05,-0.47l0 -6.31c-0.43,0.23 -0.97,0.41 -1.62,0.41 -0.68,0 -1.19,-0.04 -1.77,-0.32 -0.6,-0.29 -1.01,-0.72 -1.34,-1.28 -0.11,-0.19 -0.19,-0.38 -0.28,-0.59 -0.57,-1.43 -0.53,-4.87 -0,-6.19 0.15,-0.38 0.29,-0.62 0.52,-0.93 0.25,-0.34 0.61,-0.64 1.01,-0.84 0.58,-0.29 1.02,-0.32 1.68,-0.32 0.63,0 1.31,0.21 1.79,0.53 0.18,0.12 0.37,0.29 0.43,0.34 0.1,-0.19 0.17,-0.36 0.3,-0.52 0.35,-0.46 0.52,-0.39 1.03,-0.22 0.16,0.05 0.29,0.1 0.45,0.16 0.16,0.05 0.3,0.1 0.45,0.15 0.26,0.09 0.69,0.18 0.63,0.54 -0.03,0.18 -0.29,0.48 -0.44,1.38 -0.12,0.7 -0.12,1.49 -0.12,2.3l0 11.23c0,0.88 -1.04,0.9 -1.84,0.95z"/>
  <path class="fil0" d="M10.31 4.81l0 6.84c0,0.64 0.21,1.56 0.66,2.01 0.07,0.07 0.08,0.1 0.16,0.16 0.2,0.16 0.27,0.26 0.6,0.4 1.01,0.43 2.31,0.25 3.24,-0.22 0.1,-0.05 0.21,-0.1 0.31,-0.17l0.48 -0.34c0.04,-0.03 0.02,-0.04 0.08,-0.05 0.02,0.04 0.04,0.12 0.05,0.16l0.17 0.47c0.02,0.05 0.05,0.09 0.08,0.14 0.25,0.41 0.63,0.22 1,0.1l1.11 -0.36c0.33,-0.11 0.39,-0.17 0.39,-0.45 0,-0.16 -0.11,-0.34 -0.14,-0.48 -0.07,-0.25 -0.12,-0.54 -0.15,-0.8 -0.01,-0.09 -0.01,-0.19 -0.02,-0.29 -0.07,-0.5 -0.04,-5.38 -0.04,-5.65 0,-0.3 0.02,-1.66 -0,-1.9 -0.01,-0.07 -0.03,-0.2 -0.05,-0.26 -0.1,-0.21 -0.34,-0.12 -0.51,-0.09 -0.29,0.05 -1.63,0.32 -1.83,0.38 -0.17,0.05 -0.28,0.12 -0.33,0.3 -0.03,0.13 -0.01,6.73 -0.01,6.92 -0.04,0.01 -0.11,0.06 -0.16,0.09 -0.55,0.33 -1.78,0.8 -2.18,0 -0.13,-0.25 -0.17,-0.62 -0.17,-0.99 0,-0.5 0.01,-6.25 -0,-6.39 -0.06,-0.46 -0.29,-0.36 -0.66,-0.29 -0.4,0.07 -1.32,0.26 -1.67,0.34 -0.23,0.06 -0.4,0.15 -0.4,0.42z"/>
  <path class="fil0" d="M47.65 11.32c0,-0.34 0,-0.54 0.2,-0.83 0.33,-0.49 1.14,-0.67 1.78,-0.67l0.46 0 0 1.9c0,0.06 -0.42,0.38 -0.51,0.44 -0.31,0.17 -0.46,0.23 -0.84,0.23 -0.32,0 -0.58,-0.15 -0.75,-0.31 -0.18,-0.18 -0.33,-0.47 -0.33,-0.75zm-1.96 -6.33c0,0.24 0.05,0.3 0.14,0.57 0.07,0.21 0.29,0.98 0.4,1.11 0.19,0.23 0.55,0.05 0.82,-0.06l0.54 -0.18c0.56,-0.16 1.27,-0.33 1.9,-0.15 0.17,0.05 0.28,0.12 0.39,0.24 0.26,0.3 0.22,0.98 0.22,1.44 -1.16,0 -1.89,0.04 -2.96,0.39 -0.39,0.13 -0.91,0.43 -1.22,0.73l-0.23 0.26c-0.22,0.3 -0.21,0.29 -0.37,0.61 -0.05,0.1 -0.09,0.24 -0.13,0.36 -0.22,0.75 -0.17,1.71 0.11,2.42 0.42,1.07 1.46,1.73 2.65,1.73 0.62,0 1.1,-0.06 1.6,-0.31 0.2,-0.1 0.35,-0.19 0.52,-0.32 0.14,-0.11 0.44,-0.38 0.45,-0.39 0.06,0.12 0.1,0.33 0.23,0.59 0.26,0.51 0.36,0.47 0.72,0.34 0.36,-0.14 0.93,-0.38 1.31,-0.54 0.36,-0.14 0.41,-0.18 0.41,-0.44 0,-0.15 -0.3,-0.64 -0.4,-1.23 -0.09,-0.5 -0.09,-0.97 -0.09,-1.55 0,-1.09 0,-2.18 0,-3.27 0,-0.92 -0.14,-1.85 -0.78,-2.49 -0.29,-0.29 -0.6,-0.49 -1.01,-0.63 -1.29,-0.44 -3.38,-0.23 -4.63,0.26 -0.17,0.07 -0.58,0.27 -0.58,0.5z"/>
  <path class="fil0" d="M22.46 11.22c0,-0.77 0.51,-1.16 1.21,-1.31 0.52,-0.11 0.72,-0.09 1.23,-0.09l0 0.83c0.05,0.12 0.09,0.25 0.15,0.41 0.87,2.56 1.91,2.9 1.91,2.9 0,0 -1.04,-0.34 -1.91,-2.9 -0.05,-0.15 -0.1,-0.29 -0.15,-0.41l0 1.07 1.92 2.44 0 0c0.08,-0.03 0.17,-0.07 0.25,-0.1 0.12,-0.05 0.7,-0.27 0.79,-0.34 0.29,-0.21 0.07,-0.53 -0.06,-0.85 -0.27,-0.65 -0.3,-1.42 -0.3,-2.18 0,-1.1 0,-2.2 0,-3.3 0,-0.91 -0.11,-1.87 -0.77,-2.53 -0.28,-0.28 -0.62,-0.49 -1.03,-0.62 -0.96,-0.32 -1.9,-0.26 -2.89,-0.15 -0.16,0.02 -0.31,0.05 -0.47,0.08 -0.41,0.07 -0.91,0.19 -1.27,0.35 -0.14,0.06 -0.23,0.1 -0.35,0.19 -0.09,0.06 -0.22,0.2 -0.22,0.33 0,0.18 0.23,0.78 0.29,0.97 0.05,0.16 0.1,0.31 0.15,0.47 0.17,0.51 0.53,0.27 0.91,0.15 0.67,-0.22 1.06,-0.41 1.9,-0.41 0.16,0 0.37,0.02 0.5,0.06 0.76,0.21 0.65,0.92 0.65,1.69 -0.83,0 -1.45,0.01 -2.23,0.19 -0.31,0.07 -0.66,0.18 -0.94,0.3l-0.79 0.47c-0.1,0.09 -0.17,0.15 -0.26,0.24 -0.98,0.98 -1.04,2.84 -0.35,3.99 0.38,0.64 1.03,1.08 1.75,1.24 0.63,0.13 1.3,0.12 1.9,-0.07l0 0c-0.23,-0.66 -0.53,-1.93 -0.53,-1.93 -0.19,-0.02 -0.36,-0.08 -0.53,-0.21 -0.16,-0.13 -0.28,-0.27 -0.36,-0.47 -0.05,-0.12 -0.09,-0.3 -0.09,-0.47z"/>
  <path class="fil0" d="M54.33 4.87l0 1.19c0,0.61 0.18,0.56 0.56,0.56l3.34 0 -1.61 2.14c-0.1,0.12 -0.18,0.23 -0.27,0.35l-2.29 3.03c-0.04,0.05 -0.12,0.14 -0.12,0.21l0 1.5c0,0.07 0.06,0.16 0.1,0.19 0.09,0.09 0.21,0.09 0.35,0.09 3.18,-2.11 6.1,-0.12 6.32,-0 0.21,0 0.35,-0.23 0.41,-0.38l0.46 -1.11c-2.25,-1.55 -4.04,-1.03 -4.32,-1.03 0.05,-0.18 3.55,-4.7 3.99,-5.28 0.04,-0.05 0.11,-0.13 0.11,-0.2l0 -1.41c0,-0.28 -0.21,-0.41 -0.43,-0.41l-6.25 0c-0.33,0 -0.34,0.32 -0.34,0.56z"/>
  <path class="fil0" d="M38.97 4.97c0,0.27 0.19,0.65 0.29,0.99 0.14,0.48 0.12,0.65 0.18,1.07 0.03,0.18 0.03,0.4 0.03,0.6l0 5.61c0,0.21 -0,0.42 0.02,0.61 0.02,0.19 0.14,0.29 0.34,0.29l2.03 0c0.42,0 0.36,-0.38 0.36,-0.79l0 -5.79c0,-0.29 -0.03,-0.2 0.17,-0.41 0.24,-0.24 0.73,-0.66 1.09,-0.66 0.99,0 1.01,0.66 1.37,-0.37l0.34 -0.92c0.03,-0.07 0.04,-0.12 0.07,-0.19 0.07,-0.19 0.12,-0.26 0.12,-0.47 0,-0.36 -0.72,-0.56 -1.13,-0.56 -0.42,0 -0.57,0 -0.97,0.15 -0.25,0.09 -0.61,0.3 -0.82,0.49 -0.23,0.21 -0.24,0.24 -0.44,0.44 -0.04,0.04 -0.18,0.19 -0.19,0.25l-0.03 0c-0,-0.15 -0.2,-0.64 -0.26,-0.77 -0.07,-0.16 -0.3,-0.56 -0.49,-0.56 -0.18,0 -0.42,0.11 -0.61,0.19 -0.18,0.08 -0.35,0.15 -0.53,0.22 -0.17,0.07 -0.35,0.14 -0.52,0.21 -0.16,0.06 -0.39,0.14 -0.39,0.36z"/>
  <path class="fil1" d="M56.24 23.06c0,-0.13 0.41,-0.99 0.48,-1.17 0.2,-0.06 2.25,-0.25 2.32,-0.21 0.12,0.04 0.14,0.14 0.21,0.26 0.06,0.1 0.14,0.22 0.2,0.31 0.46,0.7 0.48,0.44 -0.04,1.73 -0.08,0.68 -0.35,0.68 -0.76,0.77 -0.45,0.1 -0.81,0.12 -1.24,0.12 -0.76,-0 -0.53,-0.01 -1.11,-1.27 -0.1,-0.21 -0.24,-0.42 -0.05,-0.56zm-21.93 2.02c-0.4,-0.21 -1.51,-0.75 -1.68,-1.18 0.41,0.12 1.11,0.58 1.53,0.8 1.32,0.68 3.72,1.66 5.16,1.71 -0.18,-0.17 -2.51,-0.81 -2.84,-0.94 -1.37,-0.52 -2.6,-1.13 -3.87,-1.86 -1.44,-0.83 -4.18,-3.29 -5.2,-4.61 -1.18,-1.53 -2.3,-3.26 -2.97,-5.17 -0.19,-0.54 -0.99,-2.76 -0.86,-3.22 0.24,0.32 0.79,2.15 1.02,2.69 0.17,0.4 0.43,0.95 0.61,1.28 0.22,0.39 0.51,0.78 0.69,1.1 -0.07,-0.43 -1.04,-2.86 -1.27,-3.73 1.27,2.19 5.27,6.64 7.42,8.04l0.99 0.72c0.83,0.56 3.37,1.95 4.66,1.98 -1.21,-0.42 -2.32,-0.97 -3.4,-1.52 -0.76,-0.39 -2.56,-1.68 -2.93,-2.2 0.37,0.01 0.94,0.52 1.29,0.75 0.4,0.27 0.86,0.59 1.31,0.82 0.94,0.47 1.9,0.88 2.98,1.19 3.32,0.95 5.2,0.58 8.65,-0.07 0.87,-0.16 2.21,-0.59 2.99,-0.95 0.6,-0.28 1.16,-0.54 1.74,-0.86 0.26,-0.14 0.52,-0.32 0.75,-0.48 0.23,-0.16 0.62,-0.3 0.7,-0.52 -0.01,-0 -0.03,-0.01 -0.03,-0 -0,0.01 -0.02,-0 -0.03,-0 -0.16,0.02 -0.33,0.16 -0.46,0.22 -2.17,1.1 -4.23,1.79 -6.67,1.89 -0.64,0.03 -1.28,-0.03 -1.91,-0.08 -0.13,-0.01 -0.18,-0.01 -0.27,-0.09 0.27,-0.14 0.72,-0.07 1.04,-0.07 2.76,-0.06 5.51,-1.07 7.6,-2.71 0.46,-0.36 1.18,-0.91 1.5,-1.35 0.9,-1.23 1.77,-2.07 3.39,-2.55 1.17,-0.35 2.45,-0.25 3.59,0.17 0.75,0.28 1.47,0.75 2.01,1.32 1.72,1.8 2.14,4.2 1.13,6.5 -0.17,0.38 -0.51,0.9 -0.78,1.22 -0.72,0.82 -1.65,1.47 -2.76,1.81 -0.42,0.13 -0.8,0.15 -1.18,0.23l0.16 0.06c-1.13,0.51 -5.65,1.73 -6.77,1.93 -0.69,0.13 -1.44,0.27 -2.12,0.34 -1.72,0.18 -2.34,0.19 -4.02,0.21 -0.71,0.01 -3.23,-0.24 -3.64,-0.51l1.63 0.17c1.72,0.12 1.74,0.12 3.46,0.08 0.61,-0.02 1.19,-0.08 1.83,-0.14 1.63,-0.15 4.2,-0.68 5.85,-1.19 0.33,-0.1 0.66,-0.2 1,-0.3 0.17,-0.05 0.33,-0.1 0.5,-0.15 0.09,-0.03 0.19,-0.05 0.28,-0.08l0.23 -0.12c-0.32,0.01 -2.15,0.57 -2.63,0.69 -0.82,0.21 -1.7,0.39 -2.54,0.56 -0.78,0.15 -1.65,0.25 -2.43,0.34 -5.11,0.6 -9.98,0.19 -14.41,-2.17zm7.24 0.68c-2.43,0.34 -9.67,-3.49 -11.22,-5.5 -0.41,-0.4 -1.78,-2.04 -2.05,-2.54 2.45,3.27 9.49,7.44 13.27,8.04zm21.12 -6.69c0.27,0.77 -0.16,2.24 -0.48,2.91 -0.36,0.76 -0.38,0.63 -1.13,0.6 -0.94,-0.04 -0.7,0.18 -1.22,-0.66 -0.44,-0.72 -0.42,-0.39 -0.19,-1.42 0.42,-1.87 0.08,-1.4 0.98,-1.83 0.35,-0.17 0.49,-0.32 0.79,-0.18 0.19,0.09 0.39,0.2 0.62,0.3 0.2,0.09 0.39,0.2 0.63,0.28zm-8.87 0.14c0.12,-0.1 0.13,-0.08 0.27,-0.05 1.52,0.38 1.09,-0.02 1.62,1.17 0.11,0.25 0.59,1.19 0.55,1.38 -0.01,0.05 -0.08,0.2 -0.11,0.26 -0.08,0.19 -0.26,0.67 -0.37,0.75 -0.06,0.31 -0.04,0.28 -0.41,0.31 -0.22,0.02 -0.44,0.05 -0.67,0.07 -0.23,0.01 -0.44,0.05 -0.66,0.08 -0.05,0.01 -0.29,0.03 -0.33,0.02 -0.22,-0.04 -0.78,-1 -0.9,-1.23 -0.15,-0.29 -0.49,-1.07 -0.44,-1.37 0.03,-0.12 1.46,-1.39 1.46,-1.39zm5.17 -4.49c0.21,-0.17 1.03,0.35 1.21,0.44 0.18,0.09 1.01,0.65 1.03,0.91l-0.18 1.41c-0.05,0.5 -0.04,0.45 -0.34,0.58 -1.2,0.54 -0.74,0.49 -1.41,0.14l-1.45 -0.84c-0.14,-0.08 -0.12,-0.11 -0.11,-0.29 0.01,-0.26 0,-0.49 0.01,-0.74 0,-0.31 -0.06,-0.48 0.16,-0.66 0.38,-0.31 0.71,-0.65 1.08,-0.95zm-5.7 9.75l-0.12 0.11c-0.35,0.21 -1.89,0.63 -2.24,0.71 -0.76,0.17 -1.49,0.32 -2.23,0.38 -1.34,0.12 -2.73,0.08 -4.05,-0.07 -1.43,-0.16 -3.25,-0.57 -4.59,-1.1 -0.49,-0.19 -1.24,-0.47 -1.69,-0.7 -0.14,-0.07 -0.27,-0.13 -0.41,-0.21 -0.14,-0.08 -0.29,-0.14 -0.38,-0.22l0.76 0.26c0.57,0.21 1.75,0.44 2.39,0.57 0.88,0.18 2.43,0.21 3.47,0.14 1.87,-0.12 4.19,-0.77 5.9,-1.63 0.29,-0.15 0.55,-0.32 0.84,-0.47 0.27,-0.14 0.55,-0.35 0.81,-0.46 -0.03,0.05 0.02,-0.01 -0.05,0.07 -0.01,0.01 -0.01,0.01 -0.02,0.02 -0.01,0.01 -0.01,0.01 -0.02,0.02 -0.18,0.17 -1.54,0.99 -1.7,1.07 -0.47,0.24 -1.78,0.8 -2.26,0.95 -0.82,0.25 -1.57,0.48 -2.4,0.64 -0.86,0.17 -1.41,0.15 -2.19,0.2 0.09,0.1 0.06,0.07 0.22,0.11 0.06,0.01 0.15,0.03 0.21,0.04 0.14,0.02 0.31,0.03 0.47,0.04 2.49,0.12 4.96,-0.18 7.36,-1.03 -0.26,0.42 -2.54,1.11 -2.98,1.24 -0.34,0.1 -0.71,0.12 -0.99,0.21 0.13,0.17 0.35,0.14 0.61,0.14 1.45,0.02 3.95,-0.63 5.3,-1.05zm1.72 -9.43l0.49 -0.24c0.12,0.12 0.96,0.57 1.17,0.71 0.68,0.44 0.57,0.19 0.57,1.13 -0,0.17 0.01,0.34 0,0.52 -0.01,0.2 -0.07,0.24 -0.22,0.37 -1.77,1.52 -1.27,1.5 -2.33,1.26 -0.53,-0.12 -0.75,-0.09 -0.81,-0.39 -0.09,-0.06 -0.75,-1.48 -0.76,-1.62 0.08,-0.21 0.54,-0.73 0.79,-0.96 0.27,-0.25 0.73,-0.61 1.1,-0.78z"/>
  <g transform="matrix(1 0 0 1 -161.954 -53.1288)">
   <text x="172.03" y="73.83"  class="fil0 fnt0">.online</text>
  </g>
 </g>
</svg>
